<svg width="28" height="33" viewBox="0 0 28 33" fill="none" xmlns="http://www.w3.org/2000/svg">
<path d="M0 6.1875C0 5.04668 0.89375 4.125 2 4.125H26C27.1063 4.125 28 5.04668 28 6.1875C28 7.32832 27.1063 8.25 26 8.25H2C0.89375 8.25 0 7.32832 0 6.1875ZM0 16.5C0 15.3592 0.89375 14.4375 2 14.4375H26C27.1063 14.4375 28 15.3592 28 16.5C28 17.6408 27.1063 18.5625 26 18.5625H2C0.89375 18.5625 0 17.6408 0 16.5ZM28 26.8125C28 27.9533 27.1063 28.875 26 28.875H2C0.89375 28.875 0 27.9533 0 26.8125C0 25.6717 0.89375 24.75 2 24.75H26C27.1063 24.75 28 25.6717 28 26.8125Z" fill="white"/>
</svg>
